<mxfile host="app.diagrams.net" agent="Mozilla/5.0 (Windows NT 10.0; Win64; x64) AppleWebKit/537.36 (KHTML, like Gecko) Chrome/138.0.0.0 Safari/537.36" version="28.0.6">
  <diagram id="C5RBs43oDa-KdzZeNtuy" name="Page-1">
    <mxGraphModel dx="629" dy="356" grid="1" gridSize="18" guides="1" tooltips="1" connect="1" arrows="1" fold="1" page="1" pageScale="1" pageWidth="827" pageHeight="1169" math="0" shadow="0">
      <root>
        <mxCell id="WIyWlLk6GJQsqaUBKTNV-0" />
        <mxCell id="WIyWlLk6GJQsqaUBKTNV-1" parent="WIyWlLk6GJQsqaUBKTNV-0" />
        <mxCell id="zkfFHV4jXpPFQw0GAbJ--13" value="Espaco" style="swimlane;fontStyle=1;align=center;verticalAlign=top;childLayout=stackLayout;horizontal=1;startSize=26;horizontalStack=0;resizeParent=1;resizeLast=0;collapsible=1;marginBottom=0;rounded=0;shadow=0;strokeWidth=1;labelBackgroundColor=none;fontSize=13;fontFamily=Open Sans;fontSource=https%3A%2F%2Ffonts.googleapis.com%2Fcss%3Ffamily%3DOpen%2BSans;fillStyle=auto;fillColor=light-dark(#DAE8FC,#0E1720);strokeColor=#6C8EBF;swimlaneFillColor=none;fontColor=#000000;" parent="WIyWlLk6GJQsqaUBKTNV-1" vertex="1">
          <mxGeometry x="792" y="603.5" width="228" height="140.5" as="geometry">
            <mxRectangle x="340" y="380" width="170" height="26" as="alternateBounds" />
          </mxGeometry>
        </mxCell>
        <mxCell id="bFWynTGjhlZ6Xg1FnUSR-4" value="&#xa;- codigoSala :  String" style="text;align=left;verticalAlign=top;spacingLeft=4;spacingRight=4;overflow=hidden;rotatable=0;points=[[0,0.5],[1,0.5]];portConstraint=eastwest;labelBackgroundColor=none;fontColor=#000000;fontFamily=Open Sans;fontSource=https%3A%2F%2Ffonts.googleapis.com%2Fcss%3Ffamily%3DOpen%2BSans;" parent="zkfFHV4jXpPFQw0GAbJ--13" vertex="1">
          <mxGeometry y="26" width="228" height="39" as="geometry" />
        </mxCell>
        <mxCell id="bFWynTGjhlZ6Xg1FnUSR-17" value="- nome :  String" style="text;align=left;verticalAlign=top;spacingLeft=4;spacingRight=4;overflow=hidden;rotatable=0;points=[[0,0.5],[1,0.5]];portConstraint=eastwest;rounded=0;shadow=0;html=0;labelBackgroundColor=none;fontColor=#000000;fontFamily=Open Sans;fontSource=https%3A%2F%2Ffonts.googleapis.com%2Fcss%3Ffamily%3DOpen%2BSans;" parent="zkfFHV4jXpPFQw0GAbJ--13" vertex="1">
          <mxGeometry y="65" width="228" height="26" as="geometry" />
        </mxCell>
        <mxCell id="zkfFHV4jXpPFQw0GAbJ--15" value="" style="line;html=1;strokeWidth=1;align=left;verticalAlign=middle;spacingTop=-1;spacingLeft=3;spacingRight=3;rotatable=0;labelPosition=right;points=[];portConstraint=eastwest;labelBackgroundColor=none;fillColor=#dae8fc;strokeColor=#6c8ebf;fontFamily=Open Sans;fontSource=https%3A%2F%2Ffonts.googleapis.com%2Fcss%3Ffamily%3DOpen%2BSans;" parent="zkfFHV4jXpPFQw0GAbJ--13" vertex="1">
          <mxGeometry y="91" width="228" height="39" as="geometry" />
        </mxCell>
        <mxCell id="zkfFHV4jXpPFQw0GAbJ--17" value="Reserva" style="swimlane;fontStyle=1;align=center;verticalAlign=top;childLayout=stackLayout;horizontal=1;startSize=26;horizontalStack=0;resizeParent=1;resizeLast=0;collapsible=1;marginBottom=0;rounded=0;shadow=0;strokeWidth=1;labelBackgroundColor=none;fontSize=13;fontFamily=Open Sans;fontSource=https%3A%2F%2Ffonts.googleapis.com%2Fcss%3Ffamily%3DOpen%2BSans;fillStyle=auto;fillColor=light-dark(#DAE8FC,#0E1720);strokeColor=#6c8ebf;swimlaneFillColor=none;fontColor=#000000;" parent="WIyWlLk6GJQsqaUBKTNV-1" vertex="1">
          <mxGeometry x="324" y="603.5" width="228" height="188.5" as="geometry">
            <mxRectangle x="550" y="140" width="160" height="26" as="alternateBounds" />
          </mxGeometry>
        </mxCell>
        <mxCell id="bFWynTGjhlZ6Xg1FnUSR-2" value="&#xa;- data :  DateTime" style="text;align=left;verticalAlign=top;spacingLeft=4;spacingRight=4;overflow=hidden;rotatable=0;points=[[0,0.5],[1,0.5]];portConstraint=eastwest;labelBackgroundColor=none;fontColor=#000000;fontFamily=Open Sans;fontSource=https%3A%2F%2Ffonts.googleapis.com%2Fcss%3Ffamily%3DOpen%2BSans;" parent="zkfFHV4jXpPFQw0GAbJ--17" vertex="1">
          <mxGeometry y="26" width="228" height="39" as="geometry" />
        </mxCell>
        <mxCell id="zkfFHV4jXpPFQw0GAbJ--21" value="- inicio :  DateTime" style="text;align=left;verticalAlign=top;spacingLeft=4;spacingRight=4;overflow=hidden;rotatable=0;points=[[0,0.5],[1,0.5]];portConstraint=eastwest;rounded=0;shadow=0;html=0;labelBackgroundColor=none;fontColor=#000000;fontFamily=Open Sans;fontSource=https%3A%2F%2Ffonts.googleapis.com%2Fcss%3Ffamily%3DOpen%2BSans;" parent="zkfFHV4jXpPFQw0GAbJ--17" vertex="1">
          <mxGeometry y="65" width="228" height="26" as="geometry" />
        </mxCell>
        <mxCell id="Fa_watVSSNyzNft1IvnE-9" value="- fim :  DateTime" style="text;align=left;verticalAlign=top;spacingLeft=4;spacingRight=4;overflow=hidden;rotatable=0;points=[[0,0.5],[1,0.5]];portConstraint=eastwest;rounded=0;shadow=0;html=0;labelBackgroundColor=none;fontColor=#000000;fontFamily=Open Sans;fontSource=https%3A%2F%2Ffonts.googleapis.com%2Fcss%3Ffamily%3DOpen%2BSans;" parent="zkfFHV4jXpPFQw0GAbJ--17" vertex="1">
          <mxGeometry y="91" width="228" height="26" as="geometry" />
        </mxCell>
        <mxCell id="8wiLto8AcE9Su4ASVX8S-3" value="- justificativa :  String" style="text;align=left;verticalAlign=top;spacingLeft=4;spacingRight=4;overflow=hidden;rotatable=0;points=[[0,0.5],[1,0.5]];portConstraint=eastwest;rounded=0;shadow=0;html=0;labelBackgroundColor=none;fontColor=#000000;fontFamily=Open Sans;fontSource=https%3A%2F%2Ffonts.googleapis.com%2Fcss%3Ffamily%3DOpen%2BSans;" parent="zkfFHV4jXpPFQw0GAbJ--17" vertex="1">
          <mxGeometry y="117" width="228" height="26" as="geometry" />
        </mxCell>
        <mxCell id="zkfFHV4jXpPFQw0GAbJ--23" value="" style="line;html=1;strokeWidth=1;align=left;verticalAlign=middle;spacingTop=-1;spacingLeft=3;spacingRight=3;rotatable=0;labelPosition=right;points=[];portConstraint=eastwest;labelBackgroundColor=none;fillColor=#dae8fc;strokeColor=#6c8ebf;fontFamily=Open Sans;fontSource=https%3A%2F%2Ffonts.googleapis.com%2Fcss%3Ffamily%3DOpen%2BSans;" parent="zkfFHV4jXpPFQw0GAbJ--17" vertex="1">
          <mxGeometry y="143" width="228" height="38" as="geometry" />
        </mxCell>
        <mxCell id="Fa_watVSSNyzNft1IvnE-34" value="Aluno" style="swimlane;fontStyle=1;align=center;verticalAlign=top;childLayout=stackLayout;horizontal=1;startSize=26;horizontalStack=0;resizeParent=1;resizeLast=0;collapsible=1;marginBottom=0;rounded=0;shadow=0;strokeWidth=1;labelBackgroundColor=none;fillColor=light-dark(#DAE8FC,#0E1720);strokeColor=#6c8ebf;fontSize=13;fontFamily=Open Sans;fontSource=https%3A%2F%2Ffonts.googleapis.com%2Fcss%3Ffamily%3DOpen%2BSans;fontColor=#000000;" parent="WIyWlLk6GJQsqaUBKTNV-1" vertex="1">
          <mxGeometry x="703" y="1057" width="228" height="88" as="geometry">
            <mxRectangle x="340" y="380" width="170" height="26" as="alternateBounds" />
          </mxGeometry>
        </mxCell>
        <mxCell id="Fa_watVSSNyzNft1IvnE-38" value="" style="line;html=1;strokeWidth=1;align=left;verticalAlign=middle;spacingTop=-1;spacingLeft=3;spacingRight=3;rotatable=0;labelPosition=right;points=[];portConstraint=eastwest;labelBackgroundColor=none;fillColor=#dae8fc;strokeColor=#6c8ebf;fontFamily=Open Sans;fontSource=https%3A%2F%2Ffonts.googleapis.com%2Fcss%3Ffamily%3DOpen%2BSans;" parent="Fa_watVSSNyzNft1IvnE-34" vertex="1">
          <mxGeometry y="26" width="228" height="62" as="geometry" />
        </mxCell>
        <mxCell id="Fa_watVSSNyzNft1IvnE-44" value="&lt;span style=&quot;font-size: 11px; font-weight: normal;&quot;&gt;&amp;lt;&amp;lt;abstract&amp;gt;&amp;gt;&lt;/span&gt;&lt;div&gt;&lt;span style=&quot;font-size: 13px; font-style: normal; line-height: 90%;&quot;&gt;Usuario&lt;/span&gt;&lt;/div&gt;" style="swimlane;fontStyle=3;align=center;verticalAlign=top;childLayout=stackLayout;horizontal=1;startSize=43;horizontalStack=0;resizeParent=1;resizeLast=0;collapsible=1;marginBottom=0;rounded=0;shadow=0;strokeWidth=1;labelBackgroundColor=none;fillColor=light-dark(#DAE8FC,#0E1720);strokeColor=#6c8ebf;fontSize=13;fontFamily=Open Sans;fontSource=https%3A%2F%2Ffonts.googleapis.com%2Fcss%3Ffamily%3DOpen%2BSans;container=0;html=1;fontColor=#000000;" parent="WIyWlLk6GJQsqaUBKTNV-1" vertex="1">
          <mxGeometry x="175" y="1091" width="228" height="187" as="geometry">
            <mxRectangle x="175" y="1091" width="170" height="26" as="alternateBounds" />
          </mxGeometry>
        </mxCell>
        <mxCell id="Fa_watVSSNyzNft1IvnE-46" value="&#xa;- matricula :  String" style="text;align=left;verticalAlign=top;spacingLeft=4;spacingRight=4;overflow=hidden;rotatable=0;points=[[0,0.5],[1,0.5]];portConstraint=eastwest;labelBackgroundColor=none;fontColor=#000000;fontFamily=Open Sans;fontSource=https%3A%2F%2Ffonts.googleapis.com%2Fcss%3Ffamily%3DOpen%2BSans;" parent="Fa_watVSSNyzNft1IvnE-44" vertex="1">
          <mxGeometry y="43" width="228" height="39" as="geometry" />
        </mxCell>
        <mxCell id="Fa_watVSSNyzNft1IvnE-54" value="Funcionario" style="swimlane;fontStyle=1;align=center;verticalAlign=top;childLayout=stackLayout;horizontal=1;startSize=26;horizontalStack=0;resizeParent=1;resizeLast=0;collapsible=1;marginBottom=0;rounded=0;shadow=0;strokeWidth=1;labelBackgroundColor=none;fillColor=light-dark(#DAE8FC,#0E1720);strokeColor=#6c8ebf;fontSize=13;fontFamily=Open Sans;fontSource=https%3A%2F%2Ffonts.googleapis.com%2Fcss%3Ffamily%3DOpen%2BSans;swimlaneFillColor=none;" parent="WIyWlLk6GJQsqaUBKTNV-1" vertex="1">
          <mxGeometry x="526" y="1224" width="228" height="108" as="geometry">
            <mxRectangle x="340" y="380" width="170" height="26" as="alternateBounds" />
          </mxGeometry>
        </mxCell>
        <mxCell id="8wiLto8AcE9Su4ASVX8S-1" value="&#xa;- cargoGestao :  Boolean" style="text;align=left;verticalAlign=top;spacingLeft=4;spacingRight=4;overflow=hidden;rotatable=0;points=[[0,0.5],[1,0.5]];portConstraint=eastwest;labelBackgroundColor=none;fontColor=#000000;fontFamily=Open Sans;fontSource=https%3A%2F%2Ffonts.googleapis.com%2Fcss%3Ffamily%3DOpen%2BSans;" parent="Fa_watVSSNyzNft1IvnE-54" vertex="1">
          <mxGeometry y="26" width="228" height="46" as="geometry" />
        </mxCell>
        <mxCell id="Fa_watVSSNyzNft1IvnE-55" value="" style="line;html=1;strokeWidth=1;align=left;verticalAlign=middle;spacingTop=-1;spacingLeft=3;spacingRight=3;rotatable=0;labelPosition=right;points=[];portConstraint=eastwest;labelBackgroundColor=none;fillColor=#dae8fc;strokeColor=#6c8ebf;fontFamily=Open Sans;fontSource=https%3A%2F%2Ffonts.googleapis.com%2Fcss%3Ffamily%3DOpen%2BSans;" parent="Fa_watVSSNyzNft1IvnE-54" vertex="1">
          <mxGeometry y="72" width="228" height="18" as="geometry" />
        </mxCell>
        <mxCell id="Fa_watVSSNyzNft1IvnE-75" value="0..*" style="text;whiteSpace=wrap;html=1;labelBackgroundColor=none;fontFamily=Open Sans;fontSource=https%3A%2F%2Ffonts.googleapis.com%2Fcss%3Ffamily%3DOpen%2BSans;fontColor=light-dark(#303030,#303030);" parent="WIyWlLk6GJQsqaUBKTNV-1" vertex="1">
          <mxGeometry x="439" y="793" width="29" height="22" as="geometry" />
        </mxCell>
        <mxCell id="Fa_watVSSNyzNft1IvnE-79" value="" style="endArrow=none;html=1;rounded=0;endFill=0;labelBackgroundColor=none;fontColor=default;strokeWidth=1;endSize=10;startFill=0;fontFamily=Open Sans;fontSource=https%3A%2F%2Ffonts.googleapis.com%2Fcss%3Ffamily%3DOpen%2BSans;strokeColor=light-dark(#303030,#303030);" parent="WIyWlLk6GJQsqaUBKTNV-1" edge="1">
          <mxGeometry width="50" height="50" relative="1" as="geometry">
            <mxPoint x="702" y="1098" as="sourcePoint" />
            <mxPoint x="505" y="1099" as="targetPoint" />
          </mxGeometry>
        </mxCell>
        <mxCell id="Fa_watVSSNyzNft1IvnE-80" value="" style="endArrow=none;html=1;rounded=0;endFill=0;labelBackgroundColor=none;fontColor=default;strokeWidth=1;endSize=10;startFill=0;fontFamily=Open Sans;fontSource=https%3A%2F%2Ffonts.googleapis.com%2Fcss%3Ffamily%3DOpen%2BSans;exitX=-0.002;exitY=0.936;exitDx=0;exitDy=0;exitPerimeter=0;strokeColor=light-dark(#303030,#303030);" parent="WIyWlLk6GJQsqaUBKTNV-1" source="8wiLto8AcE9Su4ASVX8S-1" edge="1">
          <mxGeometry width="50" height="50" relative="1" as="geometry">
            <mxPoint x="522" y="1293" as="sourcePoint" />
            <mxPoint x="505" y="1293" as="targetPoint" />
          </mxGeometry>
        </mxCell>
        <mxCell id="Fa_watVSSNyzNft1IvnE-98" value="destinada" style="text;whiteSpace=wrap;html=1;labelBackgroundColor=none;fontFamily=Open Sans;fontSource=https%3A%2F%2Ffonts.googleapis.com%2Fcss%3Ffamily%3DOpen%2BSans;fontColor=light-dark(#303030,#303030);" parent="WIyWlLk6GJQsqaUBKTNV-1" vertex="1">
          <mxGeometry x="643" y="692" width="63" height="22" as="geometry" />
        </mxCell>
        <mxCell id="Fa_watVSSNyzNft1IvnE-99" value="1" style="text;whiteSpace=wrap;html=1;labelBackgroundColor=none;fontFamily=Open Sans;fontSource=https%3A%2F%2Ffonts.googleapis.com%2Fcss%3Ffamily%3DOpen%2BSans;fontColor=light-dark(#303030,#303030);" parent="WIyWlLk6GJQsqaUBKTNV-1" vertex="1">
          <mxGeometry x="777" y="692" width="15" height="22" as="geometry" />
        </mxCell>
        <mxCell id="Fa_watVSSNyzNft1IvnE-100" value="0..*" style="text;whiteSpace=wrap;html=1;labelBackgroundColor=none;fontFamily=Open Sans;fontSource=https%3A%2F%2Ffonts.googleapis.com%2Fcss%3Ffamily%3DOpen%2BSans;fontColor=light-dark(#303030,#303030);" parent="WIyWlLk6GJQsqaUBKTNV-1" vertex="1">
          <mxGeometry x="558" y="691" width="27" height="22" as="geometry" />
        </mxCell>
        <mxCell id="bFWynTGjhlZ6Xg1FnUSR-5" value="" style="endArrow=none;html=1;rounded=0;labelBackgroundColor=none;fontColor=default;endFill=0;startFill=0;startArrow=none;strokeWidth=1;endSize=6;startSize=8;fontFamily=Open Sans;fontSource=https%3A%2F%2Ffonts.googleapis.com%2Fcss%3Ffamily%3DOpen%2BSans;strokeColor=light-dark(#303030,#303030);" parent="WIyWlLk6GJQsqaUBKTNV-1" edge="1">
          <mxGeometry width="50" height="50" relative="1" as="geometry">
            <mxPoint x="505" y="1155" as="sourcePoint" />
            <mxPoint x="505" y="1098" as="targetPoint" />
          </mxGeometry>
        </mxCell>
        <mxCell id="bFWynTGjhlZ6Xg1FnUSR-6" value="" style="endArrow=block;html=1;rounded=0;endFill=0;labelBackgroundColor=none;fontColor=default;strokeWidth=1;endSize=10;startFill=0;fontFamily=Open Sans;fontSource=https%3A%2F%2Ffonts.googleapis.com%2Fcss%3Ffamily%3DOpen%2BSans;strokeColor=light-dark(#303030,#303030);" parent="WIyWlLk6GJQsqaUBKTNV-1" edge="1">
          <mxGeometry width="50" height="50" relative="1" as="geometry">
            <mxPoint x="506" y="1155" as="sourcePoint" />
            <mxPoint x="403" y="1155" as="targetPoint" />
          </mxGeometry>
        </mxCell>
        <mxCell id="bFWynTGjhlZ6Xg1FnUSR-7" value="" style="endArrow=none;html=1;rounded=0;labelBackgroundColor=none;fontColor=default;endFill=0;startFill=0;startArrow=none;strokeWidth=1;endSize=6;startSize=8;fontFamily=Open Sans;fontSource=https%3A%2F%2Ffonts.googleapis.com%2Fcss%3Ffamily%3DOpen%2BSans;strokeColor=light-dark(#303030,#303030);" parent="WIyWlLk6GJQsqaUBKTNV-1" edge="1">
          <mxGeometry width="50" height="50" relative="1" as="geometry">
            <mxPoint x="506" y="1293" as="sourcePoint" />
            <mxPoint x="506" y="1236" as="targetPoint" />
          </mxGeometry>
        </mxCell>
        <mxCell id="bFWynTGjhlZ6Xg1FnUSR-8" value="" style="endArrow=block;html=1;rounded=0;endFill=0;labelBackgroundColor=none;fontColor=default;strokeWidth=1;endSize=10;startFill=0;fontFamily=Open Sans;fontSource=https%3A%2F%2Ffonts.googleapis.com%2Fcss%3Ffamily%3DOpen%2BSans;strokeColor=light-dark(#303030,#303030);" parent="WIyWlLk6GJQsqaUBKTNV-1" edge="1">
          <mxGeometry width="50" height="50" relative="1" as="geometry">
            <mxPoint x="506" y="1236" as="sourcePoint" />
            <mxPoint x="403" y="1236" as="targetPoint" />
          </mxGeometry>
        </mxCell>
        <mxCell id="bFWynTGjhlZ6Xg1FnUSR-9" value="tipoEspaco" style="swimlane;fontStyle=1;align=center;verticalAlign=top;childLayout=stackLayout;horizontal=1;startSize=26;horizontalStack=0;resizeParent=1;resizeLast=0;collapsible=1;marginBottom=0;rounded=0;shadow=0;strokeWidth=1;labelBackgroundColor=none;fillColor=light-dark(#DAE8FC,#0E1720);strokeColor=#6c8ebf;fontSize=13;fontFamily=Open Sans;fontSource=https%3A%2F%2Ffonts.googleapis.com%2Fcss%3Ffamily%3DOpen%2BSans;swimlaneFillColor=none;fontColor=#000000;" parent="WIyWlLk6GJQsqaUBKTNV-1" vertex="1">
          <mxGeometry x="792" y="876.5" width="228" height="111" as="geometry">
            <mxRectangle x="340" y="380" width="170" height="26" as="alternateBounds" />
          </mxGeometry>
        </mxCell>
        <mxCell id="bFWynTGjhlZ6Xg1FnUSR-10" value="&#xa;- nome :  String" style="text;align=left;verticalAlign=top;spacingLeft=4;spacingRight=4;overflow=hidden;rotatable=0;points=[[0,0.5],[1,0.5]];portConstraint=eastwest;labelBackgroundColor=none;fontColor=#000000;fontFamily=Open Sans;fontSource=https%3A%2F%2Ffonts.googleapis.com%2Fcss%3Ffamily%3DOpen%2BSans;" parent="bFWynTGjhlZ6Xg1FnUSR-9" vertex="1">
          <mxGeometry y="26" width="228" height="39" as="geometry" />
        </mxCell>
        <mxCell id="bFWynTGjhlZ6Xg1FnUSR-11" value="" style="line;html=1;strokeWidth=1;align=left;verticalAlign=middle;spacingTop=-1;spacingLeft=3;spacingRight=3;rotatable=0;labelPosition=right;points=[];portConstraint=eastwest;labelBackgroundColor=none;fillColor=#dae8fc;strokeColor=#6c8ebf;fontFamily=Open Sans;fontSource=https%3A%2F%2Ffonts.googleapis.com%2Fcss%3Ffamily%3DOpen%2BSans;" parent="bFWynTGjhlZ6Xg1FnUSR-9" vertex="1">
          <mxGeometry y="65" width="228" height="39" as="geometry" />
        </mxCell>
        <mxCell id="bFWynTGjhlZ6Xg1FnUSR-18" value="" style="endArrow=open;html=1;rounded=0;labelBackgroundColor=none;fontColor=default;endFill=0;endSize=8;fontFamily=Open Sans;fontSource=https%3A%2F%2Ffonts.googleapis.com%2Fcss%3Ffamily%3DOpen%2BSans;exitX=0.5;exitY=1;exitDx=0;exitDy=0;entryX=0.5;entryY=0;entryDx=0;entryDy=0;strokeColor=light-dark(#303030,#303030);" parent="WIyWlLk6GJQsqaUBKTNV-1" source="zkfFHV4jXpPFQw0GAbJ--13" target="bFWynTGjhlZ6Xg1FnUSR-9" edge="1">
          <mxGeometry width="50" height="50" relative="1" as="geometry">
            <mxPoint x="757" y="759.5" as="sourcePoint" />
            <mxPoint x="755" y="1092.5" as="targetPoint" />
          </mxGeometry>
        </mxCell>
        <mxCell id="bFWynTGjhlZ6Xg1FnUSR-19" value="vinculado" style="text;whiteSpace=wrap;html=1;labelBackgroundColor=none;fontFamily=Open Sans;fontSource=https%3A%2F%2Ffonts.googleapis.com%2Fcss%3Ffamily%3DOpen%2BSans;fontColor=light-dark(#303030,#303030);" parent="WIyWlLk6GJQsqaUBKTNV-1" vertex="1">
          <mxGeometry x="847" y="796" width="55" height="23" as="geometry" />
        </mxCell>
        <mxCell id="bFWynTGjhlZ6Xg1FnUSR-20" value="1" style="text;whiteSpace=wrap;html=1;labelBackgroundColor=none;fontFamily=Open Sans;fontSource=https%3A%2F%2Ffonts.googleapis.com%2Fcss%3Ffamily%3DOpen%2BSans;fontColor=light-dark(#303030,#303030);" parent="WIyWlLk6GJQsqaUBKTNV-1" vertex="1">
          <mxGeometry x="884" y="849" width="10" height="22" as="geometry" />
        </mxCell>
        <mxCell id="bFWynTGjhlZ6Xg1FnUSR-21" value="0..*" style="text;whiteSpace=wrap;html=1;labelBackgroundColor=none;fontFamily=Open Sans;fontSource=https%3A%2F%2Ffonts.googleapis.com%2Fcss%3Ffamily%3DOpen%2BSans;fontColor=light-dark(#303030,#303030);" parent="WIyWlLk6GJQsqaUBKTNV-1" vertex="1">
          <mxGeometry x="877" y="745" width="28" height="22" as="geometry" />
        </mxCell>
        <mxCell id="Fa_watVSSNyzNft1IvnE-97" value="" style="endArrow=open;html=1;rounded=0;labelBackgroundColor=none;fontColor=default;startArrow=none;startFill=0;endFill=0;endSize=8;fontFamily=Open Sans;fontSource=https%3A%2F%2Ffonts.googleapis.com%2Fcss%3Ffamily%3DOpen%2BSans;strokeWidth=1;sourcePerimeterSpacing=0;startSize=8;entryX=0.005;entryY=0.948;entryDx=0;entryDy=0;entryPerimeter=0;strokeColor=light-dark(#303030,#303030);" parent="WIyWlLk6GJQsqaUBKTNV-1" target="bFWynTGjhlZ6Xg1FnUSR-17" edge="1">
          <mxGeometry width="50" height="50" relative="1" as="geometry">
            <mxPoint x="552" y="693" as="sourcePoint" />
            <mxPoint x="792" y="692" as="targetPoint" />
          </mxGeometry>
        </mxCell>
        <mxCell id="8wiLto8AcE9Su4ASVX8S-8" value="" style="endArrow=open;html=1;rounded=0;labelBackgroundColor=none;fontColor=default;startArrow=none;startFill=0;endFill=0;endSize=8;fontFamily=Open Sans;fontSource=https%3A%2F%2Ffonts.googleapis.com%2Fcss%3Ffamily%3DOpen%2BSans;strokeWidth=1;sourcePerimeterSpacing=0;startSize=8;entryX=0.899;entryY=-0.006;entryDx=0;entryDy=0;entryPerimeter=0;strokeColor=light-dark(#303030,#303030);" parent="WIyWlLk6GJQsqaUBKTNV-1" edge="1">
          <mxGeometry width="50" height="50" relative="1" as="geometry">
            <mxPoint x="288" y="918" as="sourcePoint" />
            <mxPoint x="288.41200000000015" y="1090.9979999999998" as="targetPoint" />
          </mxGeometry>
        </mxCell>
        <mxCell id="8wiLto8AcE9Su4ASVX8S-9" value="1" style="text;whiteSpace=wrap;html=1;labelBackgroundColor=none;fontFamily=Open Sans;fontSource=https%3A%2F%2Ffonts.googleapis.com%2Fcss%3Ffamily%3DOpen%2BSans;fontColor=light-dark(#303030,#303030);" parent="WIyWlLk6GJQsqaUBKTNV-1" vertex="1">
          <mxGeometry x="296" y="1065" width="15" height="22" as="geometry" />
        </mxCell>
        <mxCell id="8wiLto8AcE9Su4ASVX8S-10" value="atribuida" style="text;whiteSpace=wrap;html=1;labelBackgroundColor=none;fontFamily=Open Sans;fontSource=https%3A%2F%2Ffonts.googleapis.com%2Fcss%3Ffamily%3DOpen%2BSans;fontColor=light-dark(#303030,#303030);" parent="WIyWlLk6GJQsqaUBKTNV-1" vertex="1">
          <mxGeometry x="333" y="918" width="54" height="22" as="geometry" />
        </mxCell>
        <mxCell id="Fa_watVSSNyzNft1IvnE-49" value="- nome :  String" style="text;align=left;verticalAlign=top;spacingLeft=4;spacingRight=4;overflow=hidden;rotatable=0;points=[[0,0.5],[1,0.5]];portConstraint=eastwest;labelBackgroundColor=none;fontColor=#000000;fontFamily=Open Sans;fontSource=https%3A%2F%2Ffonts.googleapis.com%2Fcss%3Ffamily%3DOpen%2BSans;" parent="WIyWlLk6GJQsqaUBKTNV-1" vertex="1">
          <mxGeometry x="175" y="1173" width="228" height="26" as="geometry" />
        </mxCell>
        <mxCell id="Fa_watVSSNyzNft1IvnE-50" value="- email :  String" style="text;align=left;verticalAlign=top;spacingLeft=4;spacingRight=4;overflow=hidden;rotatable=0;points=[[0,0.5],[1,0.5]];portConstraint=eastwest;labelBackgroundColor=none;fontColor=#000000;fontFamily=Open Sans;fontSource=https%3A%2F%2Ffonts.googleapis.com%2Fcss%3Ffamily%3DOpen%2BSans;" parent="WIyWlLk6GJQsqaUBKTNV-1" vertex="1">
          <mxGeometry x="175" y="1199" width="228" height="26" as="geometry" />
        </mxCell>
        <mxCell id="Fa_watVSSNyzNft1IvnE-48" value="" style="line;html=1;strokeWidth=1;align=left;verticalAlign=middle;spacingTop=-1;spacingLeft=3;spacingRight=3;rotatable=0;labelPosition=right;points=[];portConstraint=eastwest;labelBackgroundColor=none;fillColor=#dae8fc;strokeColor=#6c8ebf;fontFamily=Open Sans;fontSource=https%3A%2F%2Ffonts.googleapis.com%2Fcss%3Ffamily%3DOpen%2BSans;" parent="WIyWlLk6GJQsqaUBKTNV-1" vertex="1">
          <mxGeometry x="175" y="1215" width="228" height="63" as="geometry" />
        </mxCell>
        <mxCell id="Ol13s6hCR6kacOKU1WfY-1" value="&lt;span style=&quot;font-weight: normal;&quot;&gt;&lt;font style=&quot;font-size: 10px;&quot;&gt;&amp;lt;&amp;lt;enumeration&amp;gt;&amp;gt;&lt;/font&gt;&lt;/span&gt;&lt;div style=&quot;padding-right: 0px; padding-bottom: 50px;&quot;&gt;&lt;span style=&quot;font-style: normal; line-height: 90%;&quot;&gt;&lt;font style=&quot;font-size: 11px;&quot;&gt;TipoFuncionario&lt;/font&gt;&lt;/span&gt;&lt;/div&gt;" style="swimlane;fontStyle=3;align=center;verticalAlign=top;childLayout=stackLayout;horizontal=1;startSize=43;horizontalStack=0;resizeParent=1;resizeLast=0;collapsible=1;marginBottom=0;rounded=0;shadow=0;strokeWidth=1;labelBackgroundColor=none;fillColor=light-dark(#DAE8FC,#0E1720);strokeColor=#6c8ebf;fontSize=13;fontFamily=Open Sans;fontSource=https%3A%2F%2Ffonts.googleapis.com%2Fcss%3Ffamily%3DOpen%2BSans;container=0;html=1;fontColor=#000000;" parent="WIyWlLk6GJQsqaUBKTNV-1" vertex="1">
          <mxGeometry x="828" y="1220" width="145" height="118" as="geometry">
            <mxRectangle x="175" y="1091" width="170" height="26" as="alternateBounds" />
          </mxGeometry>
        </mxCell>
        <mxCell id="Ol13s6hCR6kacOKU1WfY-2" value="&#xa;TECNICO" style="text;align=left;verticalAlign=top;spacingLeft=4;spacingRight=4;overflow=hidden;rotatable=0;points=[[0,0.5],[1,0.5]];portConstraint=eastwest;labelBackgroundColor=none;fontColor=#000000;fontFamily=Open Sans;fontSource=https%3A%2F%2Ffonts.googleapis.com%2Fcss%3Ffamily%3DOpen%2BSans;fontSize=11;" parent="Ol13s6hCR6kacOKU1WfY-1" vertex="1">
          <mxGeometry y="43" width="145" height="39" as="geometry" />
        </mxCell>
        <mxCell id="Ol13s6hCR6kacOKU1WfY-3" value="PROFESSOR" style="text;align=left;verticalAlign=top;spacingLeft=4;spacingRight=4;overflow=hidden;rotatable=0;points=[[0,0.5],[1,0.5]];portConstraint=eastwest;labelBackgroundColor=none;fontColor=#000000;fontFamily=Open Sans;fontSource=https%3A%2F%2Ffonts.googleapis.com%2Fcss%3Ffamily%3DOpen%2BSans;fontSize=11;" parent="Ol13s6hCR6kacOKU1WfY-1" vertex="1">
          <mxGeometry y="82" width="145" height="36" as="geometry" />
        </mxCell>
        <mxCell id="Ol13s6hCR6kacOKU1WfY-4" value="&lt;span style=&quot;font-weight: normal;&quot;&gt;&lt;font style=&quot;font-size: 10px;&quot;&gt;&amp;lt;&amp;lt;enumeration&amp;gt;&amp;gt;&lt;/font&gt;&lt;/span&gt;&lt;div style=&quot;padding-right: 0px; padding-bottom: 50px;&quot;&gt;&lt;span style=&quot;font-size: 11px; font-style: normal;&quot;&gt;EstadoReserva&lt;/span&gt;&lt;/div&gt;" style="swimlane;fontStyle=3;align=center;verticalAlign=top;childLayout=stackLayout;horizontal=1;startSize=43;horizontalStack=0;resizeParent=1;resizeLast=0;collapsible=1;marginBottom=0;rounded=0;shadow=0;strokeWidth=1;labelBackgroundColor=none;fillColor=light-dark(#DAE8FC,#0E1720);strokeColor=#6c8ebf;fontSize=13;fontFamily=Open Sans;fontSource=https%3A%2F%2Ffonts.googleapis.com%2Fcss%3Ffamily%3DOpen%2BSans;container=0;html=1;fontColor=#000000;" parent="WIyWlLk6GJQsqaUBKTNV-1" vertex="1">
          <mxGeometry x="108" y="674" width="150" height="118" as="geometry">
            <mxRectangle x="175" y="1091" width="170" height="26" as="alternateBounds" />
          </mxGeometry>
        </mxCell>
        <mxCell id="Ol13s6hCR6kacOKU1WfY-5" value="&#xa;MARCADA" style="text;align=left;verticalAlign=top;spacingLeft=4;spacingRight=4;overflow=hidden;rotatable=0;points=[[0,0.5],[1,0.5]];portConstraint=eastwest;labelBackgroundColor=none;fontColor=#000000;fontFamily=Open Sans;fontSource=https%3A%2F%2Ffonts.googleapis.com%2Fcss%3Ffamily%3DOpen%2BSans;fontSize=11;" parent="Ol13s6hCR6kacOKU1WfY-4" vertex="1">
          <mxGeometry y="43" width="150" height="39" as="geometry" />
        </mxCell>
        <mxCell id="Ol13s6hCR6kacOKU1WfY-6" value="CANCELADA" style="text;align=left;verticalAlign=top;spacingLeft=4;spacingRight=4;overflow=hidden;rotatable=0;points=[[0,0.5],[1,0.5]];portConstraint=eastwest;labelBackgroundColor=none;fontColor=#000000;fontFamily=Open Sans;fontSource=https%3A%2F%2Ffonts.googleapis.com%2Fcss%3Ffamily%3DOpen%2BSans;fontSize=11;" parent="Ol13s6hCR6kacOKU1WfY-4" vertex="1">
          <mxGeometry y="82" width="150" height="36" as="geometry" />
        </mxCell>
        <mxCell id="Ol13s6hCR6kacOKU1WfY-7" value="" style="endArrow=open;html=1;rounded=0;labelBackgroundColor=none;fontColor=default;startArrow=none;startFill=0;endFill=0;endSize=8;fontFamily=Open Sans;fontSource=https%3A%2F%2Ffonts.googleapis.com%2Fcss%3Ffamily%3DOpen%2BSans;strokeWidth=1;sourcePerimeterSpacing=0;startSize=8;dashed=1;strokeColor=light-dark(#303030,#303030);" parent="WIyWlLk6GJQsqaUBKTNV-1" edge="1">
          <mxGeometry width="50" height="50" relative="1" as="geometry">
            <mxPoint x="755" y="1283" as="sourcePoint" />
            <mxPoint x="828" y="1283" as="targetPoint" />
          </mxGeometry>
        </mxCell>
        <mxCell id="Ol13s6hCR6kacOKU1WfY-10" value="" style="endArrow=open;html=1;rounded=0;labelBackgroundColor=none;fontColor=default;startArrow=none;startFill=0;endFill=0;endSize=8;fontFamily=Open Sans;fontSource=https%3A%2F%2Ffonts.googleapis.com%2Fcss%3Ffamily%3DOpen%2BSans;strokeWidth=1;startSize=8;dashed=1;targetPerimeterSpacing=0;strokeColor=light-dark(#303030,#303030);" parent="WIyWlLk6GJQsqaUBKTNV-1" edge="1">
          <mxGeometry width="50" height="50" relative="1" as="geometry">
            <mxPoint x="324" y="755.5" as="sourcePoint" />
            <mxPoint x="258" y="755" as="targetPoint" />
          </mxGeometry>
        </mxCell>
        <mxCell id="Ol13s6hCR6kacOKU1WfY-13" value="" style="endArrow=none;html=1;rounded=0;endFill=0;labelBackgroundColor=none;fontColor=default;strokeWidth=1;endSize=10;startFill=0;fontFamily=Open Sans;fontSource=https%3A%2F%2Ffonts.googleapis.com%2Fcss%3Ffamily%3DOpen%2BSans;strokeColor=light-dark(#303030,#303030);" parent="WIyWlLk6GJQsqaUBKTNV-1" edge="1">
          <mxGeometry width="50" height="50" relative="1" as="geometry">
            <mxPoint x="432" y="918" as="sourcePoint" />
            <mxPoint x="288" y="918" as="targetPoint" />
          </mxGeometry>
        </mxCell>
        <mxCell id="Ol13s6hCR6kacOKU1WfY-14" value="" style="endArrow=none;html=1;rounded=0;labelBackgroundColor=none;fontColor=default;startArrow=none;startFill=0;endFill=0;endSize=8;fontFamily=Open Sans;fontSource=https%3A%2F%2Ffonts.googleapis.com%2Fcss%3Ffamily%3DOpen%2BSans;strokeWidth=1;startSize=8;entryX=0.899;entryY=-0.006;entryDx=0;entryDy=0;entryPerimeter=0;targetPerimeterSpacing=0;strokeColor=light-dark(#303030,#303030);" parent="WIyWlLk6GJQsqaUBKTNV-1" edge="1">
          <mxGeometry width="50" height="50" relative="1" as="geometry">
            <mxPoint x="431" y="918" as="sourcePoint" />
            <mxPoint x="431" y="792" as="targetPoint" />
          </mxGeometry>
        </mxCell>
      </root>
    </mxGraphModel>
  </diagram>
</mxfile>
